<?xml version="1.0" encoding="utf-8" ?>
<!-- Generator: Assembly 1.0 - http://assemblyapp.co -->
<svg version="1.1" xmlns="http://www.w3.org/2000/svg" xmlns:xlink="http://www.w3.org/1999/xlink" width="300" height="300" viewBox="0 0 300 300">
	<g id="widget" transform="matrix(1,0,0,1,150,150)">
		<path d="M-44.7597,-19.2484 C-47.4525,-18.0017 -50.5442,-18.6001 -52.3394,-20.6446 C-52.6386,-20.9937 -53.1871,-21.0934 -53.6359,-20.7942 C-57.9742,-18.0516 -78.7186,-4.98662 -83.0569,-2.29385 C-83.4559,-2.04452 -83.6553,-1.49599 -83.4559,-1.04719 C-82.3588,1.44612 -83.1567,4.53782 -85.4505,6.38287 C-85.8494,6.73194 -85.9492,7.28047 -85.6999,7.6794 L-78.6188,18.8993 C-78.3695,19.3481 -77.821,19.4478 -77.3223,19.2484 C-74.6296,18.0017 -71.5378,18.6001 -69.7427,20.6446 C-69.4435,20.9937 -68.8949,21.0934 -68.4461,20.7942 C-64.1078,18.0516 -43.3634,4.98662 -39.0251,2.29385 C-38.6261,2.04451 -38.4267,1.49599 -38.6261,1.04719 C-39.7232,-1.44612 -38.9253,-4.53783 -36.6315,-6.38288 C-36.2326,-6.73194 -36.1328,-7.28047 -36.3822,-7.6794 L-43.513,-18.8993 C-43.7624,-19.2982 -44.3109,-19.4478 -44.7597,-19.2484 Z" fill="#ffffff" fill-opacity="1" />
		<path d="M-67.6981,17.9518 C-68.0472,17.9518 -68.3963,17.8022 -68.6456,17.5529 C-69.992,15.9572 -72.4354,15.5084 -74.48,16.4558 C-75.0783,16.7052 -75.7266,16.5556 -76.0757,16.0071 L-82.0097,6.63221 C-82.3588,6.08368 -82.2092,5.38555 -81.7106,4.98662 C-79.9652,3.5405 -79.317,1.19679 -80.1647,-0.747994 C-80.414,-1.29652 -80.2146,-1.94478 -79.666,-2.29385 L-55.082,-17.7524 C-54.5335,-18.1014 -53.8852,-18.0017 -53.4863,-17.503 C-52.1399,-15.9073 -49.6964,-15.4585 -47.6519,-16.406 L-47.6519,-16.406 C-47.0535,-16.6553 -46.4053,-16.5057 -46.0562,-15.9572 L-40.1221,-6.63221 C-39.7731,-6.08368 -39.9227,-5.38555 -40.4213,-4.98662 C-42.1666,-3.5405 -42.8149,-1.19679 -41.9672,0.747993 C-41.7179,1.29652 -41.9173,1.94478 -42.4658,2.29385 L-67.0499,17.7524 C-67.2494,17.902 -67.4987,17.9518 -67.6981,17.9518 Z M-72.236,15.1095 C-70.6403,15.1095 -69.0944,15.7577 -68.0472,17.0044 C-67.8976,17.154 -67.6981,17.2038 -67.4987,17.0542 L-42.9146,1.59572 C-42.7152,1.49599 -42.6653,1.24666 -42.765,1.09706 C-43.7624,-1.14692 -43.0144,-3.93943 -40.9699,-5.63488 C-40.8203,-5.78448 -40.7704,-6.03381 -40.8701,-6.18341 L-46.7543,-15.5583 C-46.8541,-15.7577 -47.1034,-15.8076 -47.3029,-15.7079 C-49.6964,-14.5609 -52.5388,-15.1095 -54.1345,-17.0044 C-54.2841,-17.154 -54.4836,-17.2038 -54.6831,-17.0542 L-79.2671,-1.59572 C-79.4666,-1.49599 -79.5164,-1.24666 -79.4167,-1.09706 C-78.4194,1.14692 -79.1674,3.93943 -81.2119,5.63488 C-81.3615,5.78448 -81.4114,6.03381 -81.3116,6.18341 L-75.4274,15.5583 C-75.3277,15.7577 -75.0783,15.8076 -74.8789,15.7079 C-73.9813,15.3089 -73.0837,15.1095 -72.236,15.1095 Z" fill="#2d97b7" fill-opacity="1" />
		<path d="M-75.8762,6.23328 L-74.5797,7.33033 L-73.1336,6.43274 L-73.7818,7.97859 L-72.4853,9.07565 L-74.1808,8.97592 L-74.7791,10.5716 L-75.2279,8.92605 L-76.8735,8.82632 L-75.4773,7.87886 Z" fill="#fbb03b" fill-opacity="1" />
		<path d="M-49.0981,-10.7711 L-47.8015,-9.67404 L-46.3554,-10.5716 L-47.0037,-9.02578 L-45.7071,-7.92873 L-47.4026,-8.02846 L-48.001,-6.48261 L-48.4498,-8.12819 L-50.0954,-8.22792 L-48.6991,-9.12552 Z" fill="#fbb03b" fill-opacity="1" />
		<path d="M-71.837,-2.79251 C-71.9866,-2.79251 -72.0864,-2.84237 -72.1861,-2.99197 C-72.2858,-3.19144 -72.236,-3.44077 -72.0365,-3.59037 L-60.4675,-10.9207 C-60.2681,-11.0204 -60.0188,-10.9706 -59.8692,-10.7711 C-59.7196,-10.5716 -59.8193,-10.3223 -60.0188,-10.1727 L-71.5877,-2.89224 C-71.6874,-2.84237 -71.7373,-2.79251 -71.837,-2.79251 Z" fill="#ffffff" fill-opacity="1" />
		<path d="M-62.3126,11.2698 C-62.4622,11.2698 -62.5619,11.2199 -62.6617,11.0703 C-62.7614,10.8708 -62.7115,10.6215 -62.5121,10.4719 L-50.9431,3.0917 C-50.7436,2.99197 -50.4943,3.04184 -50.3447,3.2413 C-50.245,3.44077 -50.2948,3.6901 -50.4943,3.8397 L-62.0633,11.2199 C-62.163,11.2199 -62.2129,11.2698 -62.3126,11.2698 Z" fill="#ffffff" fill-opacity="1" />
		<path d="M-26.147,14.7425 L-24.1001,-5.54111 L-16.7427,-5.54111 L-18.7895,14.7056 Z" fill="#ffffff" fill-opacity="1" />
		<path d="M3.61463,-5.54111 L1.58627,14.7241 L-5.77115,14.7425 L-4.29598,-0.0276601 L-8.02078,-0.0276601 L-9.47751,14.7241 L-16.7796,14.7056 L-14.7697,-5.54111 Z" fill="#ffffff" fill-opacity="1" />
		<path d="M3.61463,14.7425 L5.62455,-5.55955 L14.8997,-5.55955 L14.3281,0.00921914 L12.4288,0.00921914 L11.5068,9.22904 L15.2685,9.22904 L17.094,-9.2106 L15.2685,-9.22904 L15.8401,-14.7241 L24.9862,-14.7241 L22.0727,14.7425 Z" fill="#ffffff" fill-opacity="1" />
		<path d="M44.4769,-5.59643 L43.5365,3.67871 L36.1422,3.67871 L36.5109,-0.0276601 L32.8415,-0.0276601 L31.3294,14.7241 L24.0089,14.7056 L26.0372,-5.59643 Z" fill="#ffffff" fill-opacity="1" />
		<path d="M45.0485,9.17372 L52.4059,9.17372 L51.8527,14.7425 L44.4953,14.7425 Z" fill="#ffffff" fill-opacity="1" />
		<path d="M54.9875,14.7425 L57.0343,-5.54111 L64.3917,-5.54111 L62.3449,14.7056 Z" fill="#ffffff" fill-opacity="1" />
		<path d="M84.749,-5.54111 L82.7022,14.7241 L64.3548,14.7056 L66.3647,-5.54111 Z M76.8384,-0.0276601 L73.169,-0.0276601 L72.247,9.17372 L75.9349,9.19216 Z" fill="#ffffff" fill-opacity="1" />
	</g>
</svg>